# xmcd CD database file generated by OrangeCD 6.3
#
# Track frame offsets:
#	150
#	16737
#	37239
#	54181
#	72310
#	88840
#	106509
#	123345
#	136163
#	164462
#	182148
#	200165
#	215287
#	238992
#	254286
#	268963
#	295761
#	332912
#
# Disc length: 4769 seconds
#
# Revision: 2
# Processed by: cddbd v1.5.2PL0 Copyright (c) Steve Scherf et al.
# Submitted via: OrangeCD 6.3
#
DISCID=10129f12
DTITLE=Various Artist - Compilation 2010
DYEAR=2010
DGENRE=Compilation
TTITLE0=Olivia Newton-John - I Honestly Love You
TTITLE1=Olivia Newton-John - Magic
TTITLE2=Olivia Newton-John - Physical
TTITLE3=Olivia Newton-John - Suddenly
TTITLE4=Olivia Newton-John and John Travolta - Summer Nights
TTITLE5=Olivia Newton-John - Suspended In Time
TTITLE6=Olivia Newton-John - Twist Of Fate
TTITLE7=Olivia Newton-John and John Travolta - You're The One That I Want
TTITLE8=Ozric Tentacles - Dissolution
TTITLE9=Ozric Tentacles - Kick Muck
TTITLE10=Ozric Tentacles - O-I
TTITLE11=Paul Carrack - One Good Reason
TTITLE12=Paul McCartney and Wings - Band On The Run
TTITLE13=Paul McCartney - Hope Of Deliverance
TTITLE14=Paul McCartney and Wings - Live And Let Die
TTITLE15=Paul McCartney - Silly Love Songs
TTITLE16=Pet Shop Boys - Always On My Mind (Extended Version)
TTITLE17=Pet Shop Boys - One More Chance
EXTD=
EXTT0=
EXTT1=
EXTT2=
EXTT3=
EXTT4=
EXTT5=
EXTT6=
EXTT7=
EXTT8=
EXTT9=
EXTT10=
EXTT11=
EXTT12=
EXTT13=
EXTT14=
EXTT15=
EXTT16=
EXTT17=
PLAYORDER=
